<svg width="493" height="436" viewBox="0 0 493 436" fill="none" xmlns="http://www.w3.org/2000/svg">
<path fill-rule="evenodd" clip-rule="evenodd" d="M58.3923 392.562L59.8167 385.38L56.373 374.889L60.5378 359.627L49.702 358.102L47.854 364.743L40.3626 368.74L37.8024 363.759L38.9653 353.453L45.1135 350.23L51.5591 352.973L47.6286 357.376L61.3131 358.458L57.1302 339.174L58.2751 332.644L53.9931 317.246L47.7728 314.971L36.0806 313.63L31.9248 310.605L20.6202 296.966L15.7071 301.861L22.973 312.88L10.7669 305.009L2.31103 303.017L0.616241 299.733L6.34968 287.865L9.54994 276.759L9.72122 271.127L4.85321 243.812L10.7489 256.627L10.7669 265.248L26.4888 257.254L30.5545 253.983L30.4734 249.309L23.6041 241.02L22.4412 231.723L19.8178 228.537L1.88733 222.474L4.67292 210.508L3.51 162.371L9.25245 145.621L11.6414 150.061L22.8378 158.596L35.5307 158.399L43.4908 163.343L48.7014 158.596L52.3073 169.394L55.9673 172.37L65.0993 171.89L68.2545 159.543L63.3054 157.231L73.1316 142.374L77.7922 139.41L80.3885 132.794L88.4568 127.419L103.773 127.813L109.57 137.615L108.073 141.083L98.0666 152.889L98.3731 159.063L108.199 150.245L121.127 151.057L118.485 158.596L123.425 159.543L126.202 145.99L122.596 141.206L116.475 142.841L117.692 135.192L111.769 130.063L110.913 125.267L114.519 120.667L109.57 114.752L113.374 108.516L122.398 100.424L137.516 96.6239L152.778 100.424L155.933 103.486L163.199 94.5823L170.564 91.8767H186.313L173.25 85.5676L167.706 90.7329L161.783 89.0111L152.174 93.168L143.321 93.2664L119.991 99.5509L104.467 94.6438L94.3976 95.8245L83.697 101.666L80.0459 99.3541L68.7143 106.217L60.3035 106.623L54.3447 114.752L53.4702 120.225L49.098 125.267L40.3626 130.457L41.1289 137.369L51.0813 144.33L53.0195 151.327L46.0059 156.653L36.3781 146.74L29.0941 144.489L23.6041 138.66L22.4682 133.642L15.8693 130.973L18.5918 121.823L36.8739 99.4648L42.3639 95.1973L50.7928 85.2232L57.6801 82.9849L70.941 85.4446L84.2559 82.2962L90.9809 77.6227L116.475 80.4022L134.973 77.0201L143.709 72.6296L151.398 66.2467L173.331 36.1523L184.23 26.1045L191.532 17.7784L215.043 16.4133L230.639 9.77212L243.061 0.314606L250.201 2.82349L241.835 12.3302L238.779 20.6809L241.619 26.9531L250.616 39.4852L247.641 45.6098L249.849 67.1076L240.447 74.3145L235.218 83.7105L230.287 98.6039L224.977 101.605L222.003 112.858L227.384 140.591L209.833 138.635L193.975 144.945L195.048 147.121L207.516 142.805L223.806 143.161L228.971 141.206L231.36 148.868L229.593 152.816L231.684 160.969L242.8 166.651L251.12 167.389L275.334 164.499L283.574 167.5L293.175 176.724L289.542 182.553L287.829 192.626L271.35 209.044L270.187 217.592L263.426 216.116L264.994 208.183L258.972 206.056L250.877 214.296L253.383 223.421L247.758 224.798L242.619 214.455L236.562 216.153L233.325 210.815L243.368 205.059L246.352 200.46L240.023 197.557L231.982 202.157L226.753 209.167L221.245 212.623L217.351 218.514L221.308 225.315L221.552 231.513L218.46 236.716L220.632 240.996L219.911 250.957L210.301 261.595L205.28 255.434L195.373 255.791L183.951 261.854L198.537 264.338L196.815 275.763L193.038 279.49L173.728 284.348L162.946 279.613L158.763 281.507L168.22 290.583L179.993 291.001L165.02 303.423L154.869 306.276L160.26 311.675L159.115 316.816L152.778 318.71L154.211 327.257L165.371 343.565L163.28 349.652L158.421 351.94L152.426 351.079L143.366 355.814L144.754 361.52L150.01 366.268L150.921 371.359L168.256 380.804L170.6 392.414L168.851 396.743L159.737 398.022L152.778 388.196L148.613 394.923L139.49 399.867L137.443 404.504L132.215 403.261L125.282 405.733L116.042 405.143L112.824 398.945L91.2063 394.923L75.0517 391.234L65.7304 393.57L58.3923 392.562ZM382.989 415.425L383.116 420.172L379.474 426.112L374.93 427.293L359.064 424.538L342.891 429.826L333.399 425.35L315.973 415.375L299.945 411.428L296.754 407.8L304.822 400.236L298.755 391.578L305.822 385.908L320.454 383.535L331.38 389.389L334.436 394.677L357.459 404.418L355.215 399.289L370.81 395.759L377.121 405.008L383.341 409.694L382.989 415.425ZM240.789 392.082L245.739 397.776L233.992 401.687L216.449 386.585L224.337 386.388L230.54 392.513L240.789 392.082ZM441.288 373.942L450.222 375.393L455.207 382.588L450.015 385.355L437.971 383.276L430.777 384.974L421.888 393.078L410.494 391.037L411.936 384.482L418.454 379.771L428.01 379.648L428.758 374.889L441.288 373.942ZM196.067 381.555L201.539 393.324L191.641 397.678L172.574 389.709L170.564 386.068L174.422 375.848L161.684 375.221L166.02 366.71L173.845 366.92L179.921 372.564L190.919 376.057L196.067 381.555ZM282.05 372.048L286.188 361.25L292.426 356.773L287.549 373.942L280.292 386.868L270.439 412.584L264.408 413.629L260.225 399.953L268.744 393.976L265.95 387.692L282.05 372.048ZM720 359.627L719.63 364.853L711.977 379.304L702.827 378L690.161 372.835L682.228 371.039L673.943 365.739L674.574 346.762L679.307 336.604L681.597 335.89L689.422 343.626L720 359.627ZM39.5964 330.11L32.051 325.302L28.8417 318.71H38.2712L36.928 323.444L39.5964 330.11ZM262.813 369.207L254.645 370.142L249.768 374.016L226.78 369.293L218.775 365.321H201.62L210.806 358.667L206.416 352.592L198.907 352.973L187.151 347.008L183.076 342.901L183.158 329.631L177.559 329.151L172.277 325.265L178.605 322.51L175.756 316.816L162.685 307.776L169.942 302.476L177.307 301.885L183.5 307.407L198.907 300.582L212.086 297.175L226.258 292.169L244.702 302.291L241.493 310.088L246.117 313.679L256.547 310.088L256.935 292.907L261.866 295.416L270.142 307.321L266.04 316.926L276.11 328.29L279.337 335.509L274.271 339.924L277.994 348.373L275.082 360.143L269.682 368.149L262.813 369.207ZM461.536 282.454L467.458 293.94L463.943 297.728L455.478 301.59L451.791 292.034L461.536 282.454ZM251.923 257.685L260 257.697L257.548 270.118L254.249 272.492L247.938 268.483L247.632 260.562L251.923 257.685ZM402.885 393.029L408.601 392.316L416.119 400.63L405.617 407.787L394.763 420.688L395.854 432.987L391.454 436L385.432 425.485L389.615 416.851L386.821 412.018L379.311 405.278L377.716 399.769L373.253 395.796L373.262 382.908L377.671 384.912L386.821 381.555L378.924 367.866L369.981 360.66L371.73 351.915L367.691 349.21L363.031 352.973L347.02 349.751L339.971 347.291L334.436 349.173L321.851 348.275L321.454 339.42L313.359 333.763L313.954 329.089L318.56 320.333L314.819 310.088L305.859 303.914L311.971 300.643L310.303 295.367L305.795 290.964L304.074 284.003L295.266 280.646L292.778 277.411L309.257 275.726L322.545 276.759L333.94 271.742L335.13 265.789L348.336 257.34L348.877 251.843L340.349 243.873L362.165 246.948L375.156 243.185L372.145 250.096L364.428 251.99L371.414 262.629L374.579 273.919L372.911 276.489L379.456 283.708L383.711 276.501L382.647 272.959L385.432 266.232L392.383 263.379L394.042 259.456L389.543 250.834L398.585 252.593L397.954 256.639L401.957 264.584L404.066 275.702L398.883 280.99L404.914 287.201L408.456 276.759L404.219 261.571L401.434 247.243L395.782 244.66L387.993 247.108L385.063 242.877L400.037 234.809L415.623 224.663L423.755 221.183L432.246 221.441L441.063 225.315H448.32L462.167 233.002L456.605 239.557L451.033 250.096L455.288 255.372L460.156 267.265L458.696 276.759L460.156 279.613L453.918 287.914L446.165 293.94L439.909 292.034L432.544 295.342L424.07 302.205L418.959 310.359L421.69 317.664L426.639 321.095L434.653 321.907L444.083 329.631L446.165 337.784L438.773 342.642L417.399 346.553L409.89 354.4L404.517 352.321L403.525 358.667L415.957 360.278L416.813 363.501L411.585 368.26L415.416 374.889L413.946 378.96L402.128 382.588L389.615 376.795L387.046 384.383L394.474 385.355L402.885 393.029ZM349.049 142.374L349.923 139.595L359.83 140.16L356.062 144.354L349.049 142.374ZM75.214 135.647L69.129 141.919L57.1302 144.379L47.4303 132.265L49.4406 127.481L57.4818 118.65L57.1302 115.219L73.9699 112.489L79.46 105.171L84.8599 111.161L76.2958 118.195L79.46 129.067L75.214 135.647ZM311.349 53.8006L316.947 56.4448L303.623 59.5071L306.12 64.8692L299.774 71.9409L282.05 63.2212L291.39 57.6623L311.349 53.8006Z" fill="black"/>
</svg>
